<?xml version="1.0" encoding="utf-8"?>
<svg viewBox="19.35 23.93 112.337 46" xmlns="http://www.w3.org/2000/svg">
  <g transform="matrix(1, 0, 0, 1, 19.250227, 23.929626)">
    <path class="st0" d="M60.4,45.3c-0.1-0.1-0.2-0.3-0.2-0.5c0-0.3,0.3-0.6,0.6-0.6c0.2,0,0.3,0.1,0.4,0.1c0.4,0.3,0.9,0.5,1.4,0.5 c0.5,0,0.8-0.2,0.8-0.5v0c0-0.3-0.2-0.5-1.1-0.7c-1.1-0.3-1.9-0.6-1.9-1.7v0c0-1,0.8-1.7,2-1.7c0.7,0,1.3,0.2,1.8,0.5 c0.1,0.1,0.3,0.2,0.3,0.5c0,0.3-0.3,0.6-0.6,0.6c-0.1,0-0.2,0-0.3-0.1c-0.4-0.2-0.8-0.4-1.2-0.4c-0.5,0-0.7,0.2-0.7,0.5v0 c0,0.4,0.2,0.5,1.2,0.7c1.1,0.3,1.8,0.7,1.8,1.7v0c0,1.1-0.8,1.7-2.1,1.7C61.8,46,61,45.8,60.4,45.3z" style="fill: rgb(0, 163, 224);"/>
    <path class="st0" d="M68.5,43.8l-1.8-2.5c-0.1-0.1-0.2-0.3-0.2-0.4c0-0.3,0.3-0.6,0.6-0.6c0.3,0,0.5,0.2,0.6,0.4l1.4,2l1.4-2 c0.2-0.2,0.3-0.4,0.6-0.4c0.4,0,0.6,0.3,0.6,0.6c0,0.2-0.1,0.3-0.2,0.4l-1.8,2.4v1.6c0,0.3-0.3,0.6-0.6,0.6c-0.3,0-0.6-0.3-0.6-0.6 V43.8z" style="fill: rgb(0, 163, 224);"/>
    <path class="st0" d="M73.9,45.3c-0.1-0.1-0.2-0.3-0.2-0.5c0-0.3,0.3-0.6,0.6-0.6c0.2,0,0.3,0.1,0.4,0.1c0.4,0.3,0.9,0.5,1.4,0.5 c0.5,0,0.8-0.2,0.8-0.5v0c0-0.3-0.2-0.5-1.1-0.7c-1.1-0.3-1.9-0.6-1.9-1.7v0c0-1,0.8-1.7,2-1.7c0.7,0,1.3,0.2,1.8,0.5 c0.1,0.1,0.3,0.2,0.3,0.5c0,0.3-0.3,0.6-0.6,0.6c-0.1,0-0.2,0-0.3-0.1c-0.4-0.2-0.8-0.4-1.2-0.4c-0.5,0-0.7,0.2-0.7,0.5v0 c0,0.4,0.2,0.5,1.2,0.7c1.1,0.3,1.8,0.7,1.8,1.7v0c0,1.1-0.8,1.7-2.1,1.7C75.3,46,74.5,45.8,73.9,45.3z" style="fill: rgb(0, 163, 224);"/>
    <path class="st0" d="M81.9,41.5h-1.2c-0.3,0-0.6-0.3-0.6-0.6c0-0.3,0.3-0.6,0.6-0.6h3.6c0.3,0,0.6,0.3,0.6,0.6 c0,0.3-0.3,0.6-0.6,0.6h-1.2v3.9c0,0.3-0.3,0.6-0.6,0.6c-0.3,0-0.6-0.3-0.6-0.6V41.5z" style="fill: rgb(0, 163, 224);"/>
    <path class="st0" d="M87.4,45.3v-4.4c0-0.3,0.3-0.6,0.6-0.6h3.1c0.3,0,0.6,0.2,0.6,0.6c0,0.3-0.2,0.5-0.6,0.5h-2.5v1.1h2.1 c0.3,0,0.6,0.2,0.6,0.6s-0.2,0.5-0.6,0.5h-2.1v1.2h2.5c0.3,0,0.6,0.2,0.6,0.6c0,0.3-0.2,0.5-0.6,0.5H88 C87.7,45.9,87.4,45.6,87.4,45.3z" style="fill: rgb(0, 163, 224);"/>
    <path class="st0" d="M94.4,40.9c0-0.3,0.3-0.6,0.6-0.6h0.1c0.3,0,0.4,0.1,0.6,0.3l1.5,2.4l1.5-2.4c0.1-0.2,0.3-0.3,0.6-0.3h0.1 c0.3,0,0.6,0.3,0.6,0.6v4.4c0,0.3-0.3,0.6-0.6,0.6c-0.3,0-0.6-0.3-0.6-0.6v-2.8l-1.1,1.7c-0.1,0.2-0.3,0.3-0.5,0.3 c-0.2,0-0.4-0.1-0.5-0.3l-1.1-1.6v2.8c0,0.3-0.3,0.6-0.6,0.6c-0.3,0-0.6-0.3-0.6-0.6V40.9z" style="fill: rgb(0, 163, 224);"/>
    <path class="st0" d="M102.8,45.3c-0.1-0.1-0.2-0.3-0.2-0.5c0-0.3,0.3-0.6,0.6-0.6c0.2,0,0.3,0.1,0.4,0.1c0.4,0.3,0.9,0.5,1.4,0.5 c0.5,0,0.8-0.2,0.8-0.5v0c0-0.3-0.2-0.5-1.1-0.7c-1.1-0.3-1.9-0.6-1.9-1.7v0c0-1,0.8-1.7,2-1.7c0.7,0,1.3,0.2,1.8,0.5 c0.1,0.1,0.3,0.2,0.3,0.5c0,0.3-0.3,0.6-0.6,0.6c-0.1,0-0.2,0-0.3-0.1c-0.4-0.2-0.8-0.4-1.2-0.4c-0.5,0-0.7,0.2-0.7,0.5v0 c0,0.4,0.2,0.5,1.2,0.7c1.1,0.3,1.8,0.7,1.8,1.7v0c0,1.1-0.8,1.7-2.1,1.7C104.2,46,103.5,45.8,102.8,45.3z" style="fill: rgb(0, 163, 224);"/>
    <path class="st0" d="M0.1,5c0-1.9,1.5-3.4,3.4-3.4h10.8c3.9,0,7,1.1,9,3.1c1.7,1.7,2.7,4.2,2.7,7.1v0.1c0,4.9-2.4,7.9-6.2,9.4 l4.7,5.8c0.7,0.8,1.1,1.6,1.1,2.6c0,1.9-1.6,3.1-3.2,3.1c-1.6,0-2.6-0.8-3.4-1.8l-6.6-8.4H6.9v6.8c0,1.9-1.5,3.4-3.4,3.4 s-3.4-1.5-3.4-3.4V5z M13.8,16.7c3.3,0,5.2-1.8,5.2-4.4v-0.1c0-2.9-2-4.4-5.4-4.4H6.9v8.9H13.8z" style="fill: rgb(0, 163, 224);"/>
    <path class="st0" d="M40,33.1c-7.1,0-12.4-5-12.4-12.3v-0.1c0-6.8,4.8-12.4,11.7-12.4c7.9,0,11.4,6.5,11.4,11.4 c0,1.9-1.4,3.2-3.1,3.2H34.3c0.7,3.1,2.8,4.7,5.8,4.7c1.9,0,3.4-0.6,4.8-1.6c0.5-0.4,0.9-0.5,1.6-0.5c1.5,0,2.6,1.2,2.6,2.7 c0,0.9-0.4,1.6-0.9,2C46.2,32,43.5,33.1,40,33.1z M44.4,18.9c-0.4-3-2.2-5.1-5-5.1c-2.8,0-4.6,2-5.1,5.1H44.4z" style="fill: rgb(0, 163, 224);"/>
    <path class="st0" d="M63,33.1h-0.4c-1.8,0-3.1-1.2-3.8-2.9l-7.3-16.8c-0.2-0.4-0.4-1-0.4-1.6c0-1.6,1.5-3.1,3.3-3.1 c1.8,0,2.8,1,3.3,2.4l5.1,13.8l5.2-13.9c0.4-1.2,1.4-2.3,3.1-2.3c1.8,0,3.2,1.4,3.2,3.2c0,0.6-0.2,1.3-0.4,1.6l-7.3,16.8 C66.1,31.9,64.9,33.1,63,33.1z" style="fill: rgb(0, 163, 224);"/>
    <path class="st0" d="M87.2,33.1c-7.1,0-12.4-5-12.4-12.3v-0.1c0-6.8,4.8-12.4,11.7-12.4c7.9,0,11.4,6.5,11.4,11.4 c0,1.9-1.4,3.2-3.1,3.2H81.4c0.7,3.1,2.8,4.7,5.8,4.7c1.9,0,3.4-0.6,4.8-1.6c0.5-0.4,0.9-0.5,1.6-0.5c1.5,0,2.6,1.2,2.6,2.7 c0,0.9-0.4,1.6-0.9,2C93.3,32,90.6,33.1,87.2,33.1z M91.5,18.9c-0.4-3-2.2-5.1-5-5.1c-2.8,0-4.6,2-5.1,5.1H91.5z" style="fill: rgb(0, 163, 224);"/>
    <path class="st0" d="M101.2,3.4c0-1.9,1.5-3.4,3.4-3.4c1.9,0,3.4,1.5,3.4,3.4v26.1c0,1.9-1.5,3.4-3.4,3.4c-1.9,0-3.4-1.5-3.4-3.4 V3.4z" style="fill: rgb(0, 163, 224);"/>
  </g>
  <path d="M 129.892 29.19 C 129.672 29.19 129.465 29.147 129.272 29.06 C 129.079 28.973 128.909 28.853 128.762 28.7 C 128.615 28.547 128.502 28.367 128.422 28.16 C 128.342 27.96 128.302 27.74 128.302 27.5 C 128.302 27.267 128.342 27.047 128.422 26.84 C 128.502 26.64 128.615 26.463 128.762 26.31 C 128.909 26.157 129.079 26.037 129.272 25.95 C 129.465 25.863 129.672 25.82 129.892 25.82 C 130.112 25.82 130.319 25.863 130.512 25.95 C 130.705 26.037 130.875 26.157 131.022 26.31 C 131.169 26.463 131.282 26.64 131.362 26.84 C 131.442 27.047 131.482 27.267 131.482 27.5 C 131.482 27.74 131.442 27.96 131.362 28.16 C 131.282 28.367 131.169 28.547 131.022 28.7 C 130.875 28.853 130.705 28.973 130.512 29.06 C 130.319 29.147 130.112 29.19 129.892 29.19 Z M 129.892 28.92 C 130.079 28.92 130.249 28.883 130.402 28.81 C 130.562 28.737 130.705 28.637 130.832 28.51 C 130.952 28.377 131.045 28.227 131.112 28.06 C 131.179 27.887 131.212 27.7 131.212 27.5 C 131.212 27.307 131.179 27.123 131.112 26.95 C 131.045 26.783 130.952 26.637 130.832 26.51 C 130.705 26.377 130.562 26.277 130.402 26.21 C 130.249 26.137 130.079 26.1 129.892 26.1 C 129.712 26.1 129.539 26.137 129.372 26.21 C 129.212 26.277 129.072 26.373 128.952 26.5 C 128.832 26.633 128.739 26.783 128.672 26.95 C 128.605 27.123 128.572 27.307 128.572 27.5 C 128.572 27.7 128.605 27.887 128.672 28.06 C 128.739 28.227 128.832 28.377 128.952 28.51 C 129.072 28.637 129.212 28.737 129.372 28.81 C 129.539 28.883 129.712 28.92 129.892 28.92 Z M 129.572 28.43 L 129.232 28.43 L 129.232 26.52 L 129.862 26.52 C 130.089 26.52 130.265 26.57 130.392 26.67 C 130.525 26.77 130.592 26.913 130.592 27.1 C 130.592 27.193 130.565 27.273 130.512 27.34 C 130.465 27.413 130.395 27.473 130.302 27.52 C 130.402 27.56 130.472 27.62 130.512 27.7 C 130.559 27.773 130.582 27.867 130.582 27.98 L 130.582 28.11 C 130.582 28.17 130.585 28.223 130.592 28.27 C 130.599 28.323 130.609 28.363 130.622 28.39 L 130.622 28.43 L 130.282 28.43 C 130.269 28.397 130.259 28.35 130.252 28.29 C 130.252 28.23 130.252 28.17 130.252 28.11 L 130.252 27.99 C 130.252 27.877 130.225 27.797 130.172 27.75 C 130.125 27.697 130.042 27.67 129.922 27.67 L 129.572 27.67 L 129.572 28.43 Z M 129.572 26.81 L 129.572 27.38 L 129.912 27.38 C 130.005 27.38 130.085 27.357 130.152 27.31 C 130.225 27.263 130.262 27.197 130.262 27.11 C 130.262 27.003 130.232 26.927 130.172 26.88 C 130.112 26.833 130.009 26.81 129.862 26.81 L 129.572 26.81 Z" transform="matrix(1, 0, 0, 1, 0, 0)" style="fill: rgb(0, 163, 224); white-space: pre;"/>
</svg>